<mxfile host="app.diagrams.net" modified="2023-08-14T12:31:52.462Z" agent="Mozilla/5.0 (Windows NT 10.0; Win64; x64) AppleWebKit/537.36 (KHTML, like Gecko) Chrome/115.0.0.0 Safari/537.36" version="21.6.8" etag="41RRCVMZhYGfJD-aE3i9" type="device">
  <diagram id="t3cP3vF3lQIPkHDeWNGu" name="Страница — 1">
    <mxGraphModel dx="2062" dy="1844" grid="1" gridSize="10" guides="1" tooltips="1" connect="1" arrows="1" fold="1" page="1" pageScale="1" pageWidth="827" pageHeight="1169" math="0" shadow="0">
      <root>
        <mxCell id="0" />
        <mxCell id="1" parent="0" />
        <mxCell id="xS860GuPc2prP_vWfw5V-3" value="" style="rounded=0;whiteSpace=wrap;html=1;fillColor=#E6E6E6;fontColor=#ffffff;strokeColor=#314354;" vertex="1" parent="1">
          <mxGeometry x="120" y="190" width="760" height="270" as="geometry" />
        </mxCell>
        <mxCell id="xS860GuPc2prP_vWfw5V-4" value="" style="rounded=0;whiteSpace=wrap;html=1;fillColor=#66FF66;strokeColor=#3A5431;fontColor=#ffffff;" vertex="1" parent="1">
          <mxGeometry x="120" y="-180" width="760" height="310" as="geometry" />
        </mxCell>
        <mxCell id="xS860GuPc2prP_vWfw5V-5" value="Aplication" style="text;strokeColor=none;fillColor=none;html=1;fontSize=24;fontStyle=1;verticalAlign=middle;align=center;" vertex="1" parent="1">
          <mxGeometry x="-40" y="-180" width="190" height="40" as="geometry" />
        </mxCell>
        <mxCell id="xS860GuPc2prP_vWfw5V-6" value="Driver" style="text;strokeColor=none;fillColor=none;html=1;fontSize=24;fontStyle=1;verticalAlign=middle;align=center;" vertex="1" parent="1">
          <mxGeometry x="-20" y="180" width="190" height="40" as="geometry" />
        </mxCell>
        <mxCell id="xS860GuPc2prP_vWfw5V-7" value="ERR" style="shape=ext;double=1;rounded=0;whiteSpace=wrap;html=1;" vertex="1" parent="1">
          <mxGeometry x="510" y="-130" width="130" height="70" as="geometry" />
        </mxCell>
        <mxCell id="xS860GuPc2prP_vWfw5V-8" value="G-code transformation" style="shape=ext;double=1;rounded=0;whiteSpace=wrap;html=1;" vertex="1" parent="1">
          <mxGeometry x="255" y="-130" width="130" height="70" as="geometry" />
        </mxCell>
        <mxCell id="xS860GuPc2prP_vWfw5V-32" style="edgeStyle=orthogonalEdgeStyle;rounded=0;orthogonalLoop=1;jettySize=auto;html=1;entryX=0.25;entryY=0;entryDx=0;entryDy=0;" edge="1" parent="1" source="xS860GuPc2prP_vWfw5V-9" target="xS860GuPc2prP_vWfw5V-43">
          <mxGeometry relative="1" as="geometry">
            <mxPoint x="290" y="460" as="targetPoint" />
          </mxGeometry>
        </mxCell>
        <mxCell id="xS860GuPc2prP_vWfw5V-9" value="Receive from computer" style="shape=ext;double=1;rounded=0;whiteSpace=wrap;html=1;" vertex="1" parent="1">
          <mxGeometry x="130" y="60" width="120" height="40" as="geometry" />
        </mxCell>
        <mxCell id="xS860GuPc2prP_vWfw5V-10" value="Receive/Transmit" style="shape=ext;double=1;rounded=0;whiteSpace=wrap;html=1;" vertex="1" parent="1">
          <mxGeometry x="390" y="60" width="120" height="40" as="geometry" />
        </mxCell>
        <mxCell id="xS860GuPc2prP_vWfw5V-42" style="edgeStyle=orthogonalEdgeStyle;rounded=0;orthogonalLoop=1;jettySize=auto;html=1;exitX=0.25;exitY=0;exitDx=0;exitDy=0;entryX=1;entryY=0.5;entryDx=0;entryDy=0;startArrow=classic;startFill=1;strokeColor=#FF0000;" edge="1" parent="1" source="xS860GuPc2prP_vWfw5V-11" target="xS860GuPc2prP_vWfw5V-8">
          <mxGeometry relative="1" as="geometry" />
        </mxCell>
        <mxCell id="xS860GuPc2prP_vWfw5V-11" value="Arbitr" style="shape=ext;double=1;rounded=0;whiteSpace=wrap;html=1;" vertex="1" parent="1">
          <mxGeometry x="390" y="-10" width="120" height="40" as="geometry" />
        </mxCell>
        <mxCell id="xS860GuPc2prP_vWfw5V-12" value="Indication of condition" style="shape=ext;double=1;rounded=0;whiteSpace=wrap;html=1;" vertex="1" parent="1">
          <mxGeometry x="707" y="60" width="120" height="40" as="geometry" />
        </mxCell>
        <mxCell id="xS860GuPc2prP_vWfw5V-13" value="&lt;ul&gt;&lt;li&gt;SPI&lt;/li&gt;&lt;li&gt;Wi-Fi&lt;/li&gt;&lt;li&gt;UART&lt;/li&gt;&lt;/ul&gt;" style="shape=ext;double=1;rounded=0;whiteSpace=wrap;html=1;" vertex="1" parent="1">
          <mxGeometry x="130" y="210" width="120" height="70" as="geometry" />
        </mxCell>
        <mxCell id="xS860GuPc2prP_vWfw5V-15" value="&lt;div&gt;CAN FD&lt;/div&gt;" style="shape=ext;double=1;rounded=0;whiteSpace=wrap;html=1;" vertex="1" parent="1">
          <mxGeometry x="390" y="210" width="120" height="70" as="geometry" />
        </mxCell>
        <mxCell id="xS860GuPc2prP_vWfw5V-35" style="edgeStyle=orthogonalEdgeStyle;rounded=0;orthogonalLoop=1;jettySize=auto;html=1;entryX=0.5;entryY=1;entryDx=0;entryDy=0;startArrow=classic;startFill=1;exitX=0.5;exitY=0;exitDx=0;exitDy=0;" edge="1" parent="1" source="xS860GuPc2prP_vWfw5V-43" target="xS860GuPc2prP_vWfw5V-8">
          <mxGeometry relative="1" as="geometry" />
        </mxCell>
        <mxCell id="xS860GuPc2prP_vWfw5V-16" value="&lt;div&gt;Flash memory&lt;/div&gt;" style="shape=ext;double=1;rounded=0;whiteSpace=wrap;html=1;" vertex="1" parent="1">
          <mxGeometry x="260" y="350" width="120" height="70" as="geometry" />
        </mxCell>
        <mxCell id="xS860GuPc2prP_vWfw5V-17" value="&lt;ul&gt;&lt;li&gt;LED&lt;/li&gt;&lt;li&gt;UART&lt;/li&gt;&lt;/ul&gt;" style="shape=ext;double=1;rounded=0;whiteSpace=wrap;html=1;" vertex="1" parent="1">
          <mxGeometry x="707" y="210" width="120" height="70" as="geometry" />
        </mxCell>
        <mxCell id="xS860GuPc2prP_vWfw5V-19" value="" style="shape=flexArrow;endArrow=classic;html=1;rounded=0;exitX=0.5;exitY=0;exitDx=0;exitDy=0;entryX=0.5;entryY=1;entryDx=0;entryDy=0;fillColor=#33FFFF;strokeColor=#10739e;" edge="1" parent="1" source="xS860GuPc2prP_vWfw5V-13" target="xS860GuPc2prP_vWfw5V-9">
          <mxGeometry width="50" height="50" relative="1" as="geometry">
            <mxPoint x="420" y="150" as="sourcePoint" />
            <mxPoint x="470" y="100" as="targetPoint" />
          </mxGeometry>
        </mxCell>
        <mxCell id="xS860GuPc2prP_vWfw5V-27" value="" style="endArrow=classic;startArrow=classic;html=1;rounded=0;exitX=0.5;exitY=0;exitDx=0;exitDy=0;entryX=0.5;entryY=1;entryDx=0;entryDy=0;" edge="1" parent="1" source="xS860GuPc2prP_vWfw5V-15" target="xS860GuPc2prP_vWfw5V-10">
          <mxGeometry width="50" height="50" relative="1" as="geometry">
            <mxPoint x="420" y="150" as="sourcePoint" />
            <mxPoint x="470" y="100" as="targetPoint" />
          </mxGeometry>
        </mxCell>
        <mxCell id="xS860GuPc2prP_vWfw5V-28" value="" style="endArrow=classic;startArrow=classic;html=1;rounded=0;entryX=0.5;entryY=1;entryDx=0;entryDy=0;" edge="1" parent="1" target="xS860GuPc2prP_vWfw5V-11">
          <mxGeometry width="50" height="50" relative="1" as="geometry">
            <mxPoint x="450" y="60" as="sourcePoint" />
            <mxPoint x="460" y="110" as="targetPoint" />
          </mxGeometry>
        </mxCell>
        <mxCell id="xS860GuPc2prP_vWfw5V-31" value="" style="endArrow=classic;startArrow=classic;html=1;rounded=0;entryX=0.5;entryY=1;entryDx=0;entryDy=0;" edge="1" parent="1" source="xS860GuPc2prP_vWfw5V-17" target="xS860GuPc2prP_vWfw5V-12">
          <mxGeometry width="50" height="50" relative="1" as="geometry">
            <mxPoint x="750" y="260" as="sourcePoint" />
            <mxPoint x="800" y="210" as="targetPoint" />
          </mxGeometry>
        </mxCell>
        <mxCell id="xS860GuPc2prP_vWfw5V-40" value="" style="endArrow=classic;startArrow=classic;html=1;rounded=0;exitX=0.75;exitY=0;exitDx=0;exitDy=0;entryX=0;entryY=0.5;entryDx=0;entryDy=0;" edge="1" parent="1" source="xS860GuPc2prP_vWfw5V-11" target="xS860GuPc2prP_vWfw5V-7">
          <mxGeometry width="50" height="50" relative="1" as="geometry">
            <mxPoint x="420" y="-40" as="sourcePoint" />
            <mxPoint x="470" y="-90" as="targetPoint" />
            <Array as="points">
              <mxPoint x="480" y="-95" />
            </Array>
          </mxGeometry>
        </mxCell>
        <mxCell id="xS860GuPc2prP_vWfw5V-43" value="&lt;div&gt;SPI&lt;/div&gt;" style="shape=ext;double=1;rounded=0;whiteSpace=wrap;html=1;" vertex="1" parent="1">
          <mxGeometry x="260" y="210" width="120" height="70" as="geometry" />
        </mxCell>
        <mxCell id="xS860GuPc2prP_vWfw5V-44" value="" style="endArrow=classic;startArrow=classic;html=1;rounded=0;exitX=0.5;exitY=0;exitDx=0;exitDy=0;entryX=0.5;entryY=1;entryDx=0;entryDy=0;" edge="1" parent="1" source="xS860GuPc2prP_vWfw5V-16" target="xS860GuPc2prP_vWfw5V-43">
          <mxGeometry width="50" height="50" relative="1" as="geometry">
            <mxPoint x="430" y="320" as="sourcePoint" />
            <mxPoint x="480" y="270" as="targetPoint" />
          </mxGeometry>
        </mxCell>
        <mxCell id="xS860GuPc2prP_vWfw5V-45" value="&lt;div&gt;Personal Computer&lt;/div&gt;" style="shape=ext;double=1;rounded=0;whiteSpace=wrap;html=1;" vertex="1" parent="1">
          <mxGeometry x="130" y="350" width="120" height="70" as="geometry" />
        </mxCell>
        <mxCell id="xS860GuPc2prP_vWfw5V-46" value="" style="shape=flexArrow;endArrow=classic;html=1;rounded=0;exitX=0.5;exitY=0;exitDx=0;exitDy=0;entryX=0.5;entryY=1;entryDx=0;entryDy=0;strokeColor=#0000FF;fillColor=#33FFFF;" edge="1" parent="1" source="xS860GuPc2prP_vWfw5V-45" target="xS860GuPc2prP_vWfw5V-13">
          <mxGeometry width="50" height="50" relative="1" as="geometry">
            <mxPoint x="420" y="170" as="sourcePoint" />
            <mxPoint x="470" y="120" as="targetPoint" />
            <Array as="points">
              <mxPoint x="190" y="320" />
            </Array>
          </mxGeometry>
        </mxCell>
      </root>
    </mxGraphModel>
  </diagram>
</mxfile>
